<?xml version="1.0" standalone="no"?>
<!DOCTYPE svg PUBLIC "-//W3C//DTD SVG 20010904//EN"
 "http://www.w3.org/TR/2001/REC-SVG-20010904/DTD/svg10.dtd">
<svg version="1.0" xmlns="http://www.w3.org/2000/svg"
 width="600.000000pt" height="600.000000pt" viewBox="0 0 600.000000 600.000000"
 preserveAspectRatio="xMidYMid meet">
<metadata>
Created by potrace 1.11, written by Peter Selinger 2001-2013
</metadata>
<g transform="translate(0.000000,600.000000) scale(0.100000,-0.100000)"
fill="#000000" stroke="none">
<path d="M1670 5642 c0 -10 37 -86 81 -168 45 -82 99 -183 122 -224 22 -41 71
-133 109 -203 39 -71 67 -131 64 -135 -4 -3 -51 9 -106 28 -55 18 -102 31
-104 29 -2 -2 57 -89 131 -194 74 -104 142 -201 151 -215 51 -77 257 -368 269
-382 15 -17 22 -16 62 11 15 10 30 -20 -262 516 -66 121 -159 292 -207 380
-48 88 -135 249 -193 357 -59 108 -107 199 -107 202 0 2 12 7 28 9 25 4 25 4
-5 6 -26 1 -33 -3 -33 -17z"/>
<path d="M1918 5653 c28 -2 76 -2 105 0 28 2 5 3 -53 3 -58 0 -81 -1 -52 -3z"/>
<path d="M4453 5648 c18 -14 31 12 -177 -346 -43 -74 -89 -155 -103 -180 -15
-26 -43 -74 -63 -107 -20 -33 -114 -193 -207 -355 -164 -282 -187 -323 -234
-407 -11 -21 -25 -42 -30 -48 -5 -5 -9 -14 -9 -20 0 -11 67 -51 74 -44 5 5
109 152 221 314 44 64 113 161 152 218 85 120 78 110 148 212 31 44 52 81 48
82 -5 2 -48 -10 -98 -26 -49 -16 -91 -26 -93 -22 -1 4 30 63 69 132 93 161
208 360 219 379 5 8 32 54 59 101 56 96 64 129 29 129 -20 0 -20 -1 -5 -12z"/>
<path d="M2151 5263 c56 -109 112 -216 124 -238 12 -22 50 -94 85 -160 34 -66
82 -156 105 -200 23 -44 75 -143 115 -220 40 -77 74 -143 76 -146 2 -4 41 3
86 14 70 18 115 21 288 21 184 1 214 -2 294 -23 74 -19 90 -21 101 -10 11 12
326 571 433 769 19 36 49 90 67 120 18 30 51 91 75 135 24 44 52 92 62 108
l19 27 -1016 0 -1017 0 103 -197z m1123 121 c21 -21 20 -57 -1 -77 -10 -8 -36
-17 -57 -19 -51 -4 -62 -28 -13 -28 46 0 161 -36 206 -64 55 -35 99 -85 129
-146 24 -49 27 -66 26 -155 -1 -113 -16 -159 -79 -232 -48 -56 -153 -108 -250
-124 -41 -6 -72 -15 -69 -20 2 -5 28 -11 55 -15 60 -8 81 -35 61 -79 l-12 -25
-213 0 c-228 0 -237 2 -237 50 0 33 17 50 49 50 35 0 71 11 71 20 0 4 -30 13
-66 19 -114 20 -173 48 -235 112 -80 81 -103 144 -97 264 7 129 45 198 152
277 46 33 152 68 208 68 47 0 49 23 2 28 -55 5 -71 12 -81 35 -11 24 -2 54 21
69 6 4 102 8 213 8 170 0 204 -2 217 -16z"/>
<path d="M2859 5123 c-46 -24 -58 -37 -83 -86 -24 -47 -29 -70 -30 -130 0 -86
24 -163 62 -200 32 -30 91 -57 127 -57 l25 0 0 250 0 250 -23 0 c-13 0 -48
-12 -78 -27z"/>
<path d="M3150 4900 l0 -250 28 0 c46 0 114 41 147 88 29 43 30 47 30 161 0
111 -2 120 -27 158 -28 43 -112 93 -155 93 l-23 0 0 -250z"/>
<path d="M3133 4453 c9 -2 23 -2 30 0 6 3 -1 5 -18 5 -16 0 -22 -2 -12 -5z"/>
<path d="M3188 4443 c7 -3 16 -2 19 1 4 3 -2 6 -13 5 -11 0 -14 -3 -6 -6z"/>
<path d="M4838 4975 c-2 -3 -89 -35 -192 -73 l-187 -68 -52 -60 c-29 -34 -110
-130 -182 -215 -71 -85 -132 -156 -135 -159 -3 -3 -28 -32 -55 -65 -28 -33
-54 -65 -60 -71 -5 -6 -30 -35 -55 -65 -25 -29 -62 -73 -83 -97 l-38 -45 27
-28 c15 -16 32 -29 37 -29 6 0 186 175 401 389 215 214 436 432 491 485 54 52
97 98 94 101 -3 3 -8 3 -11 0z"/>
<path d="M1740 4501 c261 -259 479 -471 483 -471 11 0 67 42 67 50 0 4 -44 59
-97 122 -54 63 -118 139 -143 168 -25 29 -50 58 -55 64 -6 6 -55 65 -110 130
-55 65 -129 153 -164 195 l-64 75 -136 49 c-75 27 -149 55 -166 62 -110 49
-95 31 385 -444z"/>
<path d="M680 4955 c0 -2 42 -35 93 -73 50 -38 166 -123 257 -191 91 -67 176
-130 188 -139 13 -9 54 -39 91 -67 36 -27 150 -112 251 -187 102 -75 264 -195
360 -267 96 -72 180 -131 185 -131 6 0 16 10 24 22 12 20 11 24 -10 40 -35 27
-224 186 -283 238 -29 25 -72 61 -96 80 -24 19 -89 73 -144 120 -56 47 -157
133 -226 190 -69 58 -127 107 -130 110 -3 3 -40 34 -83 69 -76 63 -81 65 -275
127 -221 71 -202 66 -202 59z"/>
<path d="M5355 4936 c-33 -12 -118 -40 -188 -61 l-129 -40 -236 -199 c-131
-109 -260 -217 -288 -240 -28 -22 -107 -88 -175 -146 -153 -129 -148 -126
-234 -197 -38 -32 -81 -68 -95 -80 -14 -12 -36 -31 -50 -42 l-25 -20 21 -21
20 -21 175 130 c181 135 412 306 508 377 31 22 180 133 331 245 151 112 309
229 350 259 122 89 124 97 15 56z"/>
<path d="M5215 4478 c-55 -33 -112 -68 -127 -77 -59 -35 -454 -275 -628 -381
-102 -62 -233 -142 -293 -178 -59 -35 -110 -68 -113 -74 -7 -10 26 -78 37 -78
4 0 76 34 161 76 84 42 230 114 323 159 321 156 830 407 834 411 4 4 -75 177
-89 196 -3 4 -50 -20 -105 -54z"/>
<path d="M756 4447 c-25 -47 -46 -92 -46 -100 0 -8 28 -28 63 -45 34 -17 238
-117 452 -222 781 -384 757 -373 767 -359 30 46 37 67 25 77 -11 9 -310 191
-767 467 -102 61 -238 144 -303 184 -65 40 -124 74 -132 77 -8 3 -29 -25 -59
-79z"/>
<path d="M2875 4283 c-145 -19 -366 -107 -492 -196 -147 -103 -283 -261 -364
-419 -103 -203 -140 -411 -113 -637 41 -353 228 -642 544 -843 89 -56 244
-114 370 -138 96 -19 136 -21 240 -17 158 8 183 11 305 49 246 75 470 243 611
458 136 210 185 387 180 655 -3 125 -8 166 -30 248 -66 245 -206 457 -401 606
-216 166 -443 243 -704 240 -64 -1 -129 -4 -146 -6z m233 -100 c55 -34 77
-115 47 -173 -45 -87 -196 -94 -240 -10 -30 58 -9 156 39 182 53 29 110 29
154 1z m-486 -113 c57 -16 88 -60 88 -124 0 -82 -54 -136 -135 -136 -68 0
-111 37 -129 112 -13 56 39 136 99 151 32 8 38 7 77 -3z m959 -39 c33 -33 39
-45 39 -82 0 -88 -63 -145 -152 -137 -85 9 -134 84 -109 167 18 61 61 91 128
91 51 0 58 -3 94 -39z m-326 -225 c204 -70 361 -233 432 -446 27 -81 26 -321
-1 -405 -66 -204 -218 -362 -420 -438 -69 -26 -98 -31 -201 -34 -228 -9 -389
53 -533 206 -109 115 -167 247 -182 415 -11 122 -2 189 40 302 53 143 181 287
319 358 75 38 109 50 196 70 11 3 76 4 145 2 107 -2 137 -6 205 -30z m-935
-116 c38 -27 50 -56 50 -117 0 -41 -5 -51 -40 -85 -36 -34 -46 -38 -92 -38
-63 0 -111 32 -128 86 -42 127 101 232 210 154z m1560 14 c57 -23 84 -70 77
-137 -4 -44 -10 -56 -42 -84 -96 -82 -240 -4 -220 118 8 47 38 87 79 105 41
17 58 17 106 -2z m-1700 -439 c51 -26 72 -88 56 -161 -9 -42 -41 -70 -97 -85
-40 -11 -50 -10 -84 7 -57 28 -78 62 -76 124 1 56 15 83 58 111 34 23 103 25
143 4z m1868 -19 c35 -33 37 -38 37 -96 0 -58 -2 -64 -36 -94 -46 -43 -108
-54 -153 -28 -128 75 -82 252 67 252 40 0 53 -5 85 -34z m-1754 -410 c53 -22
76 -60 76 -123 0 -49 -4 -59 -33 -88 -43 -43 -93 -53 -152 -31 -35 14 -48 26
-66 62 -33 69 -13 134 54 174 38 23 75 25 121 6z m1591 0 c90 -38 101 -187 17
-229 -38 -20 -99 -28 -127 -17 -34 13 -74 60 -81 97 -8 42 10 94 44 125 44 41
88 48 147 24z m-1211 -320 c33 -31 36 -38 36 -92 -1 -63 -12 -85 -57 -116 -34
-22 -103 -24 -143 -3 -81 42 -79 186 2 231 13 8 46 13 75 14 45 0 56 -4 87
-34z m890 13 c56 -44 72 -118 36 -176 -25 -41 -68 -63 -124 -63 -121 0 -170
155 -74 235 39 33 122 35 162 4z m-452 -157 c80 -47 71 -170 -15 -222 -60 -37
-143 -17 -183 45 -22 33 -15 116 13 153 37 49 123 60 185 24z"/>
<path d="M2880 3000 c-24 -24 -26 -63 -4 -84 25 -26 29 -19 29 44 0 33 -1 60
-2 60 -2 0 -12 -9 -23 -20z"/>
<path d="M2945 2951 c0 -74 -15 -113 -49 -129 -14 -7 -16 -11 -6 -11 9 -1 32
10 52 24 63 42 75 136 22 171 -18 13 -19 10 -19 -55z"/>
<path d="M3079 3001 l-24 -20 23 6 c59 15 68 -51 16 -126 l-35 -52 58 3 c45 2
59 7 61 20 3 14 -3 17 -32 14 -44 -3 -46 10 -6 55 36 41 41 93 11 109 -28 15
-46 12 -72 -9z"/>
<path d="M3287 2993 c-31 -61 -31 -70 7 -77 40 -8 80 -51 72 -79 -4 -15 -2
-16 10 -6 20 17 18 73 -5 93 -10 9 -32 21 -47 25 -45 12 -37 37 10 34 36 -3
55 8 56 30 0 4 -20 7 -45 7 -38 0 -46 -4 -58 -27z"/>
<path d="M2701 3001 c-12 -8 -12 -12 -2 -25 8 -10 12 -40 9 -91 -3 -74 -3 -75
22 -75 l25 0 -3 100 c-3 86 -6 100 -20 100 -9 0 -23 -4 -31 -9z"/>
<path d="M3262 2828 c3 -7 18 -14 34 -16 28 -3 28 -3 9 12 -24 19 -48 21 -43
4z"/>
<path d="M807 3962 c-19 -38 -32 -73 -29 -78 4 -5 122 -45 262 -88 140 -43
298 -92 350 -108 405 -125 522 -160 526 -155 2 2 5 20 7 41 l2 36 -85 34 c-47
19 -184 73 -305 121 -121 48 -321 127 -444 176 -123 49 -229 89 -236 89 -7 0
-28 -31 -48 -68z"/>
<path d="M4975 3922 c-148 -59 -349 -139 -445 -177 -265 -104 -394 -155 -398
-159 -2 -2 4 -20 12 -40 l15 -36 38 14 c37 14 204 66 388 121 50 15 155 47
235 72 80 25 217 67 305 95 195 60 215 68 215 81 0 24 -66 137 -80 137 -8 0
-136 -49 -285 -108z"/>
<path d="M858 3565 c-23 -40 -32 -67 -26 -71 10 -7 914 -139 993 -146 37 -3
39 -1 48 31 10 41 7 43 -81 60 -37 7 -164 35 -282 61 -378 86 -585 130 -600
130 -8 0 -32 -30 -52 -65z"/>
<path d="M5095 3609 c-44 -10 -226 -50 -405 -89 -496 -108 -510 -112 -510
-124 1 -37 14 -56 39 -56 52 0 1061 147 1070 156 3 2 -11 34 -30 69 -39 75
-38 74 -164 44z"/>
<path d="M917 3266 c-12 -17 -31 -43 -40 -58 l-17 -28 -421 0 c-377 0 -420 -2
-426 -16 -8 -20 16 -69 152 -304 43 -75 269 -480 310 -555 38 -70 167 -302
310 -555 76 -135 150 -267 165 -295 74 -135 145 -264 165 -295 12 -19 77 -135
144 -257 118 -214 142 -246 172 -227 9 5 44 58 126 189 7 11 70 112 141 225
71 113 146 234 168 270 21 36 41 67 44 70 3 3 22 32 41 65 20 33 73 119 119
190 242 381 341 548 285 480 -17 -20 -114 -170 -166 -256 -15 -24 -91 -145
-169 -269 -78 -124 -237 -376 -353 -560 -275 -439 -251 -404 -269 -383 -8 10
-29 43 -45 73 -32 56 -44 78 -118 210 -23 41 -88 158 -144 260 -57 102 -134
239 -171 305 -66 116 -171 303 -515 920 -89 160 -174 313 -190 340 -15 28 -48
86 -73 130 -24 44 -62 110 -84 148 -21 37 -36 72 -33 77 4 7 328 10 915 10
l910 0 6 26 c4 16 2 29 -6 34 -6 4 -66 10 -133 14 -106 6 -590 39 -729 49 -44
4 -50 1 -71 -27z"/>
<path d="M4985 3284 c-99 -7 -286 -19 -415 -28 -390 -27 -370 -24 -370 -57 l0
-29 880 0 c733 0 882 -2 886 -14 3 -7 -27 -68 -65 -134 -39 -67 -71 -123 -71
-125 0 -2 -46 -84 -101 -183 -56 -98 -114 -201 -129 -229 -15 -27 -92 -165
-170 -305 -169 -302 -222 -396 -263 -470 -16 -30 -58 -104 -92 -165 -80 -142
-106 -189 -173 -310 -30 -55 -67 -120 -82 -145 -15 -25 -57 -101 -95 -170
-117 -214 -136 -244 -150 -228 -7 7 -63 94 -125 193 -62 99 -144 230 -182 290
-39 61 -98 157 -134 215 -35 58 -87 142 -116 188 -93 146 -142 223 -248 396
-58 92 -111 170 -118 173 -21 9 -38 -14 -26 -35 6 -9 22 -37 36 -62 14 -25 78
-139 143 -255 65 -115 152 -271 193 -345 83 -150 132 -230 139 -230 2 0 9 14
14 30 6 17 15 30 19 30 9 0 89 -123 271 -413 110 -177 126 -198 148 -195 13 2
28 10 32 18 5 8 41 70 79 138 39 67 70 125 70 128 0 2 11 21 23 42 13 20 41
69 61 107 21 39 46 86 58 105 34 59 260 462 288 516 15 29 39 69 54 90 14 21
26 42 26 46 0 6 65 124 122 223 7 11 30 54 53 95 23 41 86 154 140 250 54 96
108 193 120 215 12 22 64 114 115 205 165 295 159 283 149 308 l-8 22 -355 0
-355 0 -41 60 c-22 33 -44 59 -48 59 -4 -1 -88 -8 -187 -15z"/>
<path d="M424 2903 c7 -18 33 -62 209 -363 46 -80 105 -181 129 -225 25 -44
143 -249 263 -455 119 -206 229 -395 242 -420 14 -25 38 -65 52 -90 14 -25 42
-73 61 -108 19 -34 38 -62 41 -62 3 0 11 10 17 23 6 12 22 38 34 58 13 20 41
65 62 100 22 35 58 93 81 129 23 36 59 93 81 128 21 34 60 96 87 137 26 41 47
77 47 80 0 2 28 49 63 102 137 212 257 409 257 420 0 5 -11 20 -25 33 -36 34
-128 174 -165 251 -17 36 -46 113 -65 170 l-34 104 -721 3 c-685 2 -722 1
-716 -15z m693 -348 c148 -30 357 -72 465 -95 244 -50 283 -51 329 -10 19 16
41 30 50 30 23 0 69 -46 69 -69 0 -11 -24 -55 -53 -98 -30 -43 -82 -120 -117
-171 -70 -102 -91 -115 -139 -86 -40 24 -44 37 -24 79 22 47 14 53 -92 75
l-86 18 -23 -32 c-13 -17 -53 -75 -90 -130 l-66 -98 47 -75 c25 -41 53 -77 60
-80 8 -3 29 8 47 26 38 36 54 38 90 10 47 -37 35 -64 -112 -274 -57 -82 -89
-94 -138 -52 l-27 24 17 43 c17 42 17 42 -13 104 -17 33 -51 93 -76 131 -25
39 -91 140 -146 225 -192 297 -299 470 -299 486 0 19 37 74 51 74 5 0 129 -25
276 -55z"/>
<path d="M1130 2284 c53 -87 112 -174 118 -174 8 1 113 152 109 157 -2 1 -46
11 -98 22 -52 10 -107 22 -123 27 l-30 7 24 -39z"/>
<path d="M1804 2185 c-30 -12 -54 -45 -34 -45 6 0 10 -4 10 -9 0 -6 -10 -8
-22 -6 -22 4 -22 4 -4 -10 26 -20 48 -2 41 34 -3 14 -2 20 1 14 8 -17 24 -16
24 1 0 8 6 16 13 19 6 2 10 7 7 10 -3 3 -19 -1 -36 -8z"/>
<path d="M4195 2908 c-2 -7 -19 -58 -36 -113 -17 -55 -45 -127 -61 -160 -45
-89 -134 -219 -184 -267 -28 -27 -43 -49 -40 -60 2 -10 49 -88 104 -175 55
-87 209 -333 342 -548 134 -214 246 -394 250 -398 4 -4 31 34 60 85 29 51 72
125 95 163 23 39 45 77 48 85 4 8 15 29 26 45 26 43 253 438 258 450 3 6 -6
-3 -19 -20 -93 -121 -198 -185 -306 -188 l-61 -2 15 -23 c8 -13 14 -37 12 -54
-3 -26 -16 -40 -82 -86 -95 -66 -111 -64 -169 18 -21 30 -44 64 -52 75 -8 11
-37 53 -64 94 -63 96 -59 111 44 170 96 55 104 57 155 30 58 -31 123 -28 196
8 69 33 142 103 168 158 42 87 14 194 -67 259 -34 27 -48 31 -111 34 -63 4
-81 0 -128 -22 -71 -34 -143 -97 -170 -149 -16 -32 -19 -52 -15 -94 6 -61 4
-64 -91 -142 -82 -66 -100 -66 -150 2 -73 100 -172 254 -172 268 1 23 21 42
100 98 42 30 83 51 94 49 11 -2 30 -18 42 -35 l22 -33 25 53 c29 58 80 114
143 158 149 102 348 81 490 -53 161 -152 227 -353 169 -521 -7 -22 -10 -36 -5
-31 9 10 63 103 113 194 16 30 37 66 47 80 15 22 47 77 168 290 48 85 129 225
151 260 11 19 21 41 21 48 0 18 -1369 18 -1375 0z"/>
<path d="M4221 2390 c-13 -7 -13 -13 -1 -37 13 -27 14 -27 18 -5 6 36 -1 53
-17 42z"/>
<path d="M2444 2112 c-12 -18 -274 -484 -319 -567 -15 -27 -31 -54 -35 -60 -7
-10 -31 -52 -93 -165 -17 -30 -43 -75 -58 -100 -16 -25 -24 -49 -20 -53 5 -5
45 -5 90 -1 68 5 85 10 96 28 8 11 62 125 121 251 58 127 130 281 160 344 30
62 54 115 54 117 0 2 18 41 40 86 22 46 40 88 40 94 0 9 -25 25 -60 40 -4 2
-11 -5 -16 -14z"/>
<path d="M3442 2055 c-19 -8 -32 -19 -30 -23 1 -5 86 -257 188 -561 101 -303
188 -551 192 -551 4 0 8 7 8 15 0 8 5 15 10 15 6 0 10 5 10 12 0 7 16 52 36
100 l37 88 -23 52 c-12 29 -28 67 -36 83 -12 27 -90 207 -280 647 -32 76 -63
138 -69 137 -5 0 -25 -6 -43 -14z"/>
<path d="M2645 2029 c-13 -36 -139 -400 -155 -449 -15 -47 -94 -274 -205 -593
-15 -43 -25 -81 -21 -84 8 -9 176 78 185 96 10 18 35 107 97 346 24 94 59 229
78 300 84 319 96 369 89 376 -17 16 -63 21 -68 8z"/>
<path d="M3239 2000 c-14 -8 -11 -35 27 -262 35 -212 77 -472 158 -978 6 -41
16 -75 21 -75 4 0 28 45 52 100 39 91 42 104 34 145 -10 51 -78 351 -116 515
-14 61 -35 151 -45 200 -11 50 -34 151 -53 225 -33 137 -42 152 -78 130z"/>
<path d="M2846 1968 c-14 -81 -117 -716 -136 -838 -12 -74 -34 -216 -51 -314
-16 -99 -27 -186 -25 -193 7 -18 32 -16 104 8 39 13 62 26 62 36 0 18 33 394
60 673 10 113 26 291 35 395 9 105 17 205 20 223 2 20 -1 32 -8 32 -7 0 -22 3
-34 6 -19 5 -23 1 -27 -28z"/>
<path d="M3041 1178 l0 -813 70 139 c56 113 69 147 69 186 0 26 -11 220 -25
431 -14 211 -30 463 -35 559 -6 96 -13 205 -16 243 -6 66 -7 67 -35 67 l-29 0
1 -812z"/>
<path d="M4914 1935 c-10 -8 -14 -15 -8 -15 6 0 17 7 24 15 16 19 9 19 -16 0z"/>
<path d="M4831 1889 c-13 -5 -22 -11 -20 -14 8 -7 49 7 49 16 0 5 -1 9 -2 8
-2 0 -14 -5 -27 -10z"/>
<path d="M4589 1806 c7 -8 21 -12 33 -8 21 5 21 6 2 13 -33 13 -48 11 -35 -5z"/>
<path d="M4635 1748 c5 -13 2 -15 -14 -11 -12 3 -28 0 -36 -7 -8 -7 -15 -9
-15 -4 0 5 -6 0 -13 -11 -13 -23 -17 -65 -5 -65 4 0 8 5 8 10 0 6 7 10 15 10
8 0 15 5 15 10 0 6 7 10 15 10 8 0 15 5 15 10 0 6 -6 10 -12 10 -9 0 -8 3 2
10 8 5 17 5 20 0 3 -5 12 -5 20 0 13 8 12 12 -3 27 -16 16 -17 16 -12 1z"/>
</g>
</svg>
