<?xml version="1.0" standalone="no"?>
<!DOCTYPE svg PUBLIC "-//W3C//DTD SVG 20010904//EN"
 "http://www.w3.org/TR/2001/REC-SVG-20010904/DTD/svg10.dtd">
<svg version="1.0" xmlns="http://www.w3.org/2000/svg"
 width="600.000000pt" height="600.000000pt" viewBox="0 0 600.000000 600.000000"
 preserveAspectRatio="xMidYMid meet">
<metadata>
Created by potrace 1.11, written by Peter Selinger 2001-2013
</metadata>
<g transform="translate(0.000000,600.000000) scale(0.100000,-0.100000)"
fill="#000000" stroke="none">
<path d="M1670 5634 c0 -15 44 -108 98 -208 261 -479 285 -526 269 -526 -2 0
-49 16 -106 35 -71 24 -101 30 -98 21 15 -39 558 -806 571 -806 6 0 22 9 35
19 l25 19 -26 49 c-14 26 -41 77 -60 113 -19 36 -70 130 -113 210 -43 80 -110
204 -150 275 -39 72 -88 159 -107 195 -105 197 -302 558 -313 576 -8 12 -11
24 -8 28 8 8 2768 8 2776 0 3 -3 -7 -27 -22 -52 -16 -26 -106 -182 -201 -347
-96 -165 -185 -318 -198 -340 -34 -54 -202 -346 -202 -351 0 -2 -16 -28 -35
-58 -19 -30 -35 -57 -35 -59 0 -3 -31 -58 -70 -123 -38 -66 -70 -124 -70 -131
0 -6 15 -20 34 -31 l34 -20 19 21 c11 12 44 58 73 102 30 44 72 105 94 137 23
31 47 64 53 75 7 10 41 59 76 108 185 263 277 398 274 401 -1 2 -45 -10 -96
-27 -52 -16 -96 -28 -98 -25 -3 3 14 38 37 78 24 40 56 98 73 128 16 30 36 62
43 71 8 8 14 18 14 22 0 3 49 91 109 194 107 184 115 200 112 236 -1 16 -75
17 -1406 17 l-1405 0 0 -26z"/>
<path d="M2050 5447 c0 -5 26 -60 59 -121 32 -61 87 -165 121 -231 34 -66 85
-163 113 -215 90 -167 186 -351 250 -478 58 -115 64 -123 87 -118 14 3 59 13
100 23 58 14 116 17 260 17 163 -1 196 -4 283 -26 l98 -25 38 66 c21 36 55 98
76 136 21 39 52 95 70 125 18 30 58 100 88 155 74 136 101 186 157 285 136
241 222 396 223 405 1 7 -341 10 -1010 10 -600 0 -1013 -3 -1013 -8z m1226
-81 c29 -40 7 -73 -54 -80 -86 -10 -83 -28 7 -44 155 -26 246 -85 300 -193
107 -214 -11 -454 -249 -508 -25 -5 -62 -13 -83 -16 -32 -5 -36 -9 -27 -21 7
-8 28 -14 48 -14 61 0 90 -43 55 -82 -15 -16 -35 -18 -219 -18 -171 0 -205 2
-218 16 -37 37 -7 84 53 84 21 0 44 6 50 14 14 17 7 21 -39 25 -46 3 -136 28
-180 51 -54 27 -116 95 -147 158 -23 48 -27 70 -28 142 0 109 22 173 81 239
58 65 148 110 248 124 42 6 76 14 76 19 0 13 -38 28 -72 28 -39 0 -58 15 -58
46 0 45 27 50 293 49 135 0 150 -2 163 -19z"/>
<path d="M2863 5121 c-178 -81 -156 -421 30 -476 28 -8 54 -15 59 -15 4 0 8
115 8 255 l0 255 -27 0 c-16 0 -47 -9 -70 -19z"/>
<path d="M3150 4885 c0 -207 3 -255 14 -255 25 0 81 23 118 49 99 71 117 290
31 392 -31 36 -94 68 -135 69 l-28 0 0 -255z"/>
<path d="M3100 4475 c-7 -8 -18 -15 -24 -15 -7 0 -21 -7 -32 -15 -17 -13 -8
-14 94 -15 68 0 112 4 112 10 0 6 -11 10 -25 10 -14 0 -41 7 -60 14 -19 8 -35
12 -35 8 0 -4 -4 -1 -9 6 -6 10 -10 10 -21 -3z"/>
<path d="M1260 4967 c0 -2 199 -202 441 -443 243 -242 459 -457 480 -478 l39
-40 27 20 c47 35 50 48 17 86 -225 267 -349 414 -353 418 -3 3 -28 32 -56 65
-27 33 -52 62 -55 65 -3 3 -36 41 -73 86 l-68 81 -182 65 c-100 36 -190 69
-199 73 -10 4 -18 5 -18 2z"/>
<path d="M4650 4897 l-195 -71 -210 -249 c-115 -137 -244 -288 -285 -336 -111
-127 -160 -188 -160 -197 0 -5 15 -21 33 -35 l33 -27 500 494 c274 271 495
493 489 493 -5 0 -98 -32 -205 -72z"/>
<path d="M660 4956 c0 -4 62 -51 600 -450 140 -104 284 -210 320 -237 549
-408 522 -390 542 -372 10 9 18 22 18 29 0 8 -107 103 -237 211 -131 109 -240
200 -243 203 -3 3 -63 55 -135 115 -71 59 -152 127 -180 150 -27 24 -97 82
-154 130 l-104 87 -211 69 c-232 76 -216 71 -216 65z"/>
<path d="M5238 4890 l-206 -65 -134 -112 c-73 -61 -194 -162 -268 -225 -74
-62 -257 -216 -407 -341 -150 -126 -275 -232 -278 -237 -8 -13 13 -50 28 -50
7 0 100 66 207 146 107 80 227 168 265 197 39 28 165 122 280 207 116 86 325
241 465 345 140 103 257 189 259 191 16 14 -29 2 -211 -56z"/>
<path d="M763 4458 c-66 -128 -65 -126 -40 -143 20 -13 184 -94 966 -476 156
-77 287 -139 291 -139 10 0 50 63 50 77 0 6 -80 59 -177 117 -98 59 -252 152
-343 207 -150 92 -600 364 -677 411 l-32 19 -38 -73z"/>
<path d="M5190 4457 c-127 -78 -623 -379 -765 -464 -163 -97 -370 -225 -378
-233 -5 -4 1 -26 14 -48 l23 -39 90 42 c50 24 285 138 521 255 237 116 494
243 573 281 81 39 142 75 142 83 0 23 -84 196 -95 195 -5 0 -62 -32 -125 -72z"/>
<path d="M2945 4284 c-149 -21 -233 -41 -330 -81 -133 -54 -148 -62 -255 -140
-548 -397 -624 -1190 -161 -1686 245 -262 619 -399 966 -353 264 35 477 140
667 328 139 138 230 287 281 458 33 112 34 118 47 244 45 448 -207 901 -615
1105 -123 61 -200 87 -303 106 -87 15 -250 26 -297 19z m154 -108 c42 -22 61
-58 61 -115 0 -56 -19 -82 -77 -107 -55 -24 -110 -18 -143 15 -54 53 -52 131
5 188 28 28 40 33 79 33 26 0 60 -7 75 -14z m-457 -127 c38 -17 68 -70 68
-118 0 -34 -6 -49 -29 -72 -16 -16 -37 -29 -45 -29 -9 0 -16 -4 -16 -10 0 -5
-23 -10 -51 -10 -45 0 -55 4 -85 34 -30 30 -34 40 -34 86 0 47 4 56 39 91 34
34 45 39 84 39 25 0 56 -5 69 -11z m916 -9 c71 -43 76 -147 10 -202 -41 -36
-124 -39 -168 -8 -48 34 -59 121 -22 178 34 53 121 68 180 32z m-316 -243
c223 -72 391 -254 449 -487 18 -71 21 -103 16 -195 -10 -189 -77 -338 -211
-463 -81 -76 -170 -125 -286 -158 -83 -24 -104 -26 -204 -21 -199 9 -354 80
-483 221 -70 76 -134 197 -158 297 -17 75 -20 216 -4 291 37 182 147 343 302
442 66 42 112 62 202 87 101 28 270 21 377 -14z m-931 -114 c87 -52 73 -177
-25 -224 -58 -29 -104 -20 -145 27 -52 59 -38 156 28 197 34 22 105 21 142 0z
m1604 -16 c63 -63 52 -154 -24 -204 -42 -29 -82 -29 -131 -2 -44 25 -60 54
-60 110 0 82 47 128 134 129 41 0 53 -5 81 -33z m-1734 -420 c40 -27 59 -60
59 -105 0 -41 -14 -69 -53 -104 -24 -22 -40 -28 -76 -28 -55 1 -85 16 -112 56
-22 33 -25 97 -6 134 18 37 74 70 117 70 22 0 51 -9 71 -23z m1838 9 c51 -27
79 -93 63 -151 -12 -43 -83 -95 -130 -95 -42 0 -95 29 -113 61 -15 28 -14 102
2 131 32 60 117 85 178 54z m-1702 -443 c33 -22 53 -64 53 -114 0 -35 -6 -48
-39 -80 -34 -35 -44 -39 -87 -39 -61 0 -93 16 -117 58 -72 122 71 253 190 175z
m1563 11 c78 -31 104 -131 49 -190 -53 -57 -154 -67 -198 -20 -61 65 -38 176
44 212 40 17 57 17 105 -2z m-1209 -323 c33 -32 39 -45 39 -79 0 -23 -5 -53
-12 -67 -14 -32 -88 -67 -142 -67 -33 -1 -45 5 -73 35 -55 61 -43 147 26 194
23 15 49 23 79 23 38 0 50 -5 83 -39z m887 19 c40 -25 61 -72 55 -123 -4 -29
-14 -45 -44 -69 -22 -18 -47 -33 -57 -34 -9 0 -28 -4 -42 -8 -39 -11 -92 29
-108 82 -38 119 89 217 196 152z m-432 -174 c29 -29 34 -41 34 -83 0 -58 -17
-86 -70 -113 -111 -56 -216 25 -181 139 18 61 61 91 128 91 49 0 59 -4 89 -34z"/>
<path d="M2710 2997 c-34 -15 -36 -17 -22 -26 11 -6 19 -127 11 -160 -3 -9 6
-14 29 -15 23 -1 31 3 27 12 -3 8 -5 56 -5 108 0 52 -3 94 -7 93 -5 0 -19 -5
-33 -12z"/>
<path d="M2882 2994 c-40 -27 -25 -104 20 -104 15 0 16 4 7 27 -12 32 -3 83
16 83 7 0 15 -10 19 -22 16 -61 -5 -134 -45 -156 -39 -23 -37 -32 6 -20 51 16
86 58 92 111 5 39 2 49 -20 71 -30 30 -62 33 -95 10z"/>
<path d="M3078 2999 c-10 -5 -18 -17 -18 -25 0 -11 4 -12 19 -2 15 9 23 9 35
-1 25 -21 19 -55 -19 -112 -41 -60 -36 -69 33 -61 55 6 49 2 54 27 3 17 -2 19
-34 16 -21 -1 -38 1 -38 4 0 4 13 23 30 41 16 19 33 46 36 60 12 48 -49 82
-98 53z"/>
<path d="M3276 2967 c-9 -23 -16 -45 -16 -48 0 -3 17 -11 39 -17 46 -14 64
-33 64 -67 0 -28 12 -33 21 -9 11 28 6 72 -9 87 -8 9 -31 21 -51 27 -43 14
-34 27 21 32 28 2 41 8 43 21 3 14 -4 17 -46 17 -49 0 -49 0 -66 -43z"/>
<path d="M3264 2826 c-8 -20 -5 -23 23 -28 30 -4 33 11 6 29 -20 14 -23 14
-29 -1z"/>
<path d="M5396 4253 c-6 -14 -5 -15 5 -6 7 7 10 15 7 18 -3 3 -9 -2 -12 -12z"/>
<path d="M825 3990 c-42 -66 -60 -109 -49 -119 8 -8 240 -84 387 -127 26 -8
68 -20 95 -28 26 -8 179 -55 341 -105 161 -50 299 -91 306 -91 11 0 39 70 30
78 -2 2 -230 94 -507 203 -277 109 -520 206 -540 214 l-38 15 -25 -40z"/>
<path d="M5100 3966 c-85 -34 -335 -134 -555 -221 -220 -87 -404 -161 -409
-165 -8 -8 11 -80 21 -80 3 0 76 22 162 49 86 27 291 90 456 141 165 50 311
95 325 100 14 5 72 23 130 40 58 18 109 36 114 41 11 10 -63 159 -79 158 -5 0
-80 -28 -165 -63z"/>
<path d="M893 3618 c-32 -42 -75 -131 -65 -137 16 -10 1032 -154 1039 -148 3
4 6 23 7 44 1 34 -1 37 -34 45 -140 31 -614 136 -745 164 -88 19 -167 37 -176
39 -9 3 -21 0 -26 -7z"/>
<path d="M4834 3546 c-204 -46 -431 -96 -503 -112 -73 -16 -137 -31 -142 -35
-6 -4 -8 -21 -4 -43 7 -34 9 -36 39 -31 17 2 256 36 531 75 275 39 510 73 523
75 l22 5 -30 60 c-16 33 -30 66 -30 75 0 8 -8 15 -17 14 -10 0 -185 -38 -389
-83z"/>
<path d="M896 3230 l-38 -60 -422 -2 -421 -3 -3 -23 c-2 -13 23 -69 66 -145
62 -109 205 -365 575 -1027 65 -118 147 -264 182 -325 34 -60 77 -137 95 -170
18 -33 49 -89 70 -125 40 -70 225 -401 273 -490 17 -30 41 -72 54 -92 13 -21
23 -42 23 -47 0 -5 13 -23 29 -40 35 -37 63 -32 89 15 10 16 20 31 25 32 4 2
7 10 7 17 0 8 6 18 13 22 6 4 20 25 29 46 10 20 22 37 28 37 5 0 10 7 10 15 0
8 23 48 50 88 28 41 50 79 50 85 0 7 4 12 9 12 5 0 14 13 21 30 7 17 16 30 20
30 4 0 22 29 41 65 18 36 37 65 41 65 4 0 8 6 8 14 0 7 29 60 64 117 64 106
309 496 351 559 80 123 144 234 139 242 -4 5 -10 6 -14 1 -5 -4 -79 -120 -165
-258 -153 -243 -261 -414 -354 -562 -25 -40 -72 -114 -104 -165 -91 -145 -256
-408 -290 -461 -17 -26 -35 -46 -40 -44 -6 2 -17 16 -26 33 -62 112 -120 217
-231 414 -70 124 -144 257 -165 295 -21 39 -66 120 -100 180 -52 93 -159 284
-238 425 -24 44 -48 86 -130 230 -35 63 -78 140 -95 170 -16 30 -47 87 -69
125 -22 39 -56 99 -75 135 -20 36 -84 150 -142 255 -59 104 -105 193 -104 197
2 5 413 10 913 11 l910 2 3 38 c2 28 -1 37 -12 37 -21 0 -755 48 -841 55 l-70
6 -39 -61z"/>
<path d="M4665 3256 l-460 -31 0 -35 0 -35 879 -2 c483 -1 881 -4 883 -7 3 -2
-33 -71 -80 -153 -46 -81 -109 -193 -139 -248 -31 -55 -96 -172 -145 -260 -50
-88 -100 -178 -113 -200 -12 -22 -44 -78 -70 -125 -40 -71 -237 -423 -307
-550 -11 -19 -65 -116 -120 -215 -56 -99 -114 -203 -130 -231 -15 -28 -82
-148 -148 -267 -66 -119 -124 -216 -130 -216 -5 0 -23 21 -39 47 -16 26 -48
76 -71 112 -23 36 -102 162 -175 280 -132 214 -201 324 -427 683 -65 103 -122
195 -128 205 -57 98 -90 142 -103 137 -7 -3 -16 -5 -18 -5 -12 0 -1 -40 22
-80 15 -25 70 -124 124 -220 210 -376 352 -625 360 -634 10 -10 40 16 40 36 0
28 54 -47 191 -262 78 -124 153 -244 167 -268 13 -24 34 -47 46 -52 38 -14 45
-6 118 132 11 20 26 42 34 49 8 6 14 20 14 31 0 10 5 16 10 13 6 -3 10 0 10 9
0 18 31 78 118 229 38 64 64 110 90 157 13 25 32 59 42 75 10 17 30 53 45 80
15 28 38 68 51 90 13 22 26 48 30 58 3 9 10 17 15 17 5 0 9 8 9 19 0 10 8 29
19 42 10 13 54 89 98 169 44 80 90 163 103 185 12 22 34 60 47 85 13 25 33 59
43 75 11 17 22 37 26 45 3 8 10 23 15 33 6 10 19 36 31 58 11 21 24 41 28 44
5 3 25 38 45 78 49 97 97 183 113 199 6 6 12 18 12 25 0 8 18 42 40 77 22 35
40 68 40 75 0 6 3 11 8 11 4 0 16 19 27 43 11 23 38 74 60 112 58 100 77 143
73 168 l-3 22 -362 5 c-406 6 -371 -1 -410 82 -22 45 45 44 -548 4z"/>
<path d="M426 2878 c9 -18 28 -50 41 -71 26 -41 45 -73 103 -177 45 -80 316
-549 330 -570 9 -15 122 -210 369 -640 77 -135 145 -245 151 -245 5 0 54 71
108 158 101 164 460 739 568 911 l62 99 -52 66 c-63 80 -94 128 -136 212 -33
65 -100 249 -100 275 0 12 -105 14 -730 14 l-731 0 17 -32z m844 -367 c622
-128 593 -125 645 -71 34 36 44 37 79 9 46 -36 36 -62 -85 -238 -60 -89 -119
-165 -129 -171 -22 -12 -58 0 -82 26 -15 18 -15 22 2 59 10 22 15 43 11 48 -4
4 -49 16 -100 27 -89 20 -94 20 -107 3 -49 -66 -165 -244 -162 -251 15 -35
106 -162 115 -162 7 0 24 16 39 35 14 19 32 35 39 35 21 0 75 -50 75 -68 0
-19 -138 -232 -178 -274 -32 -34 -65 -36 -97 -4 -24 24 -24 26 -9 61 20 48 12
79 -38 157 -22 35 -57 90 -78 123 -51 83 -334 527 -382 599 -42 64 -44 85 -8
124 14 15 28 20 43 17 12 -3 195 -41 407 -84z"/>
<path d="M1112 2302 c10 -23 132 -212 137 -211 10 0 113 160 107 166 -5 6
-220 53 -239 53 -5 0 -7 -4 -5 -8z"/>
<path d="M1458 2231 c-8 -12 -18 -18 -21 -14 -4 3 -7 1 -7 -5 0 -7 -6 -12 -14
-12 -9 0 -13 -11 -13 -35 1 -32 2 -33 19 -18 10 9 18 20 18 25 0 5 10 22 22
38 12 16 19 32 16 36 -3 3 -12 -4 -20 -15z"/>
<path d="M1830 2231 c-25 -9 -46 -19 -48 -23 -2 -5 -11 -8 -19 -8 -9 0 -13 -6
-9 -15 3 -8 -1 -33 -9 -56 -18 -51 -19 -46 5 -52 15 -4 28 6 53 41 42 59 80
122 76 126 -2 1 -24 -5 -49 -13z"/>
<path d="M4184 2883 c-41 -189 -154 -400 -290 -543 l-33 -35 60 -95 c32 -52
74 -119 91 -148 18 -29 49 -79 69 -110 20 -31 82 -131 139 -222 56 -91 111
-177 121 -192 11 -15 19 -30 19 -33 0 -4 13 -25 28 -48 16 -23 53 -80 82 -127
29 -47 64 -102 77 -123 28 -44 36 -46 52 -10 14 30 263 464 399 693 27 47 59
101 70 121 11 19 88 154 172 300 295 508 340 587 340 593 0 3 -313 6 -695 6
l-695 0 -6 -27z m569 -214 c184 -61 340 -287 339 -489 -1 -161 -119 -314 -280
-366 -55 -17 -183 -16 -227 1 -20 8 -20 8 -2 -13 14 -16 26 -19 52 -15 26 4
35 1 49 -18 19 -28 20 -58 3 -79 -23 -29 -144 -100 -169 -100 -22 0 -41 22
-127 146 -56 81 -101 157 -101 169 0 28 18 43 111 94 l76 41 54 -25 c30 -14
70 -25 89 -25 81 0 228 99 273 185 33 63 30 149 -8 211 -78 126 -248 131 -396
12 -64 -51 -91 -105 -90 -181 l0 -64 -62 -55 c-76 -67 -99 -80 -126 -70 -29
11 -211 280 -211 313 0 29 20 50 102 102 77 50 83 52 107 26 30 -32 35 -58 17
-78 -20 -22 -20 -45 -2 -60 11 -9 14 -3 20 35 17 128 114 247 244 300 75 31
178 32 265 3z"/>
<path d="M4342 2267 c-7 -18 -12 -41 -12 -51 0 -9 -4 -14 -10 -11 -13 8 -13 2
3 -28 21 -41 36 -18 35 56 0 37 -1 67 -2 67 -1 0 -7 -15 -14 -33z"/>
<path d="M4950 1984 c-66 -54 -160 -113 -209 -130 l-36 -13 32 -1 c80 -1 208
73 253 145 12 20 20 38 18 40 -2 2 -29 -16 -58 -41z"/>
<path d="M4573 1737 c-2 -4 -8 -5 -12 -3 -4 3 -22 -7 -40 -22 -29 -24 -31 -30
-22 -54 15 -39 39 -35 110 17 70 51 73 74 9 71 -22 0 -42 -4 -45 -9z"/>
<path d="M2404 2038 c-27 -46 -54 -93 -60 -105 -33 -60 -135 -242 -199 -353
-135 -234 -237 -422 -233 -426 8 -7 102 -6 148 3 l45 8 212 455 c116 250 212
458 212 461 1 5 -64 39 -73 39 -3 0 -26 -37 -52 -82z"/>
<path d="M3448 2052 c-21 -8 -38 -19 -38 -24 0 -13 360 -1089 371 -1110 6 -10
13 -18 17 -18 10 0 42 71 42 93 0 10 4 17 8 17 5 0 15 19 22 43 7 23 25 55 39
72 14 16 22 27 17 23 -10 -9 -46 9 -46 22 0 5 -11 33 -24 62 -13 29 -71 163
-129 298 -155 361 -227 524 -235 531 -4 3 -24 -1 -44 -9z"/>
<path d="M2645 2027 c-12 -32 -133 -381 -185 -532 -78 -228 -196 -566 -204
-586 -6 -13 0 -18 23 -21 17 -3 31 -1 31 4 0 4 3 7 8 6 10 -2 64 24 80 39 7 7
19 13 27 13 18 0 36 50 90 255 26 99 80 306 121 460 71 265 91 355 83 355 -2
0 -19 4 -37 9 -24 7 -34 7 -37 -2z"/>
<path d="M3225 1991 c-3 -6 3 -61 14 -123 11 -62 31 -185 45 -273 14 -88 46
-286 71 -440 25 -154 53 -327 62 -385 9 -58 20 -109 24 -114 4 -5 18 13 30 40
12 27 31 69 42 94 11 25 27 49 34 53 9 6 11 13 5 20 -5 7 -12 30 -16 52 -4 22
-14 67 -21 100 -8 33 -50 218 -94 410 -142 624 -128 575 -161 575 -16 0 -31
-4 -35 -9z"/>
<path d="M2846 1978 c-3 -7 -11 -58 -20 -113 -8 -55 -35 -224 -60 -375 -116
-720 -139 -869 -132 -885 5 -14 14 -16 51 -10 25 3 61 13 80 20 40 17 31 -38
80 510 54 601 65 725 67 795 l3 65 -33 3 c-20 2 -34 -2 -36 -10z"/>
<path d="M3030 1171 c0 -446 4 -812 8 -815 10 -6 52 47 52 65 0 7 7 20 16 30
8 9 17 23 18 31 5 30 49 118 67 134 13 11 16 20 9 24 -7 4 -19 121 -30 301
-28 427 -49 760 -55 869 -3 52 -8 112 -11 133 -5 34 -8 37 -40 37 l-34 0 0
-809z"/>
</g>
</svg>
