<?xml version="1.0" standalone="no"?>
<!DOCTYPE svg PUBLIC "-//W3C//DTD SVG 20010904//EN"
 "http://www.w3.org/TR/2001/REC-SVG-20010904/DTD/svg10.dtd">
<svg version="1.0" xmlns="http://www.w3.org/2000/svg"
 width="236.000000pt" height="236.000000pt" viewBox="0 0 236.000000 236.000000"
 preserveAspectRatio="xMidYMid meet">
<metadata>
Created by potrace 1.11, written by Peter Selinger 2001-2013
</metadata>
<g transform="translate(0.000000,236.000000) scale(0.100000,-0.100000)"
fill="#000000" stroke="none">
<path d="M610 2184 c0 -3 83 -140 185 -305 102 -165 185 -303 185 -307 -1 -4
-24 -23 -53 -42 -29 -20 -73 -64 -99 -98 -51 -67 -76 -134 -85 -224 l-6 -58
-364 0 c-230 0 -363 -4 -361 -10 6 -18 583 -959 588 -960 3 0 77 142 165 315
88 173 161 315 163 315 1 0 22 -10 45 -22 130 -66 300 -63 422 7 l40 24 160
-316 c88 -173 163 -316 166 -318 3 -2 138 213 301 478 l296 482 -372 5 -371 5
-4 55 c-8 124 -80 250 -181 318 -30 20 -56 37 -58 38 -2 1 78 134 177 296 99
162 183 302 187 311 6 16 -37 17 -560 17 -311 0 -566 -3 -566 -6z m670 -108
c0 -8 -12 -16 -27 -18 -42 -5 -39 -25 6 -33 49 -8 101 -41 119 -75 19 -36 8
-97 -23 -130 -22 -23 -49 -35 -122 -56 -21 -6 -2 -34 23 -34 15 0 24 -6 24
-15 0 -12 -17 -15 -95 -15 -78 0 -95 3 -95 15 0 8 8 15 19 15 10 0 24 7 31 15
13 16 17 14 -57 34 -53 15 -103 69 -103 114 0 66 52 118 129 131 30 5 39 10
35 21 -4 8 -17 15 -30 15 -15 0 -24 6 -24 15 0 12 17 15 95 15 76 0 95 -3 95
-14z m0 -552 c69 -20 115 -50 168 -108 70 -76 87 -123 87 -241 0 -90 -3 -106
-29 -160 -36 -73 -99 -135 -174 -172 -50 -25 -68 -28 -152 -28 -81 0 -103 4
-150 26 -223 104 -287 388 -130 571 93 108 244 153 380 112z m617 -516 c109
-65 135 -186 56 -263 -42 -41 -89 -52 -145 -36 -58 18 -69 0 -23 -35 32 -24
40 -26 57 -15 11 7 22 10 25 7 7 -7 -50 -76 -62 -76 -6 0 -33 20 -60 43 l-49
44 32 41 c28 35 36 39 60 33 73 -21 162 56 162 140 0 43 -56 99 -99 99 -88 0
-168 -110 -132 -179 10 -19 8 -27 -19 -61 -18 -22 -35 -40 -38 -40 -4 0 -31
22 -59 48 l-53 47 35 39 c36 40 55 44 36 7 -9 -17 -6 -25 21 -50 50 -47 59
-41 33 22 -28 67 -15 126 38 175 46 44 121 48 184 10z m-1326 -104 c131 -57
179 -74 201 -70 19 4 28 1 28 -7 0 -19 -118 -119 -126 -106 -3 6 -1 16 5 22
17 17 13 25 -19 42 -42 22 -50 20 -104 -28 -49 -43 -49 -43 -37 -80 14 -42 27
-53 44 -38 7 5 18 7 25 2 8 -5 -4 -22 -37 -55 -27 -27 -54 -45 -60 -42 -7 5
-7 12 1 25 9 14 -2 55 -51 204 -54 162 -64 207 -46 207 3 0 82 -34 176 -76z"/>
<path d="M1226 1993 c-3 -4 -6 -48 -6 -100 0 -102 6 -110 52 -73 49 38 42 137
-11 165 -16 8 -31 11 -35 8z"/>
<path d="M1098 1980 c-22 -14 -41 -75 -33 -108 8 -35 43 -72 67 -72 16 0 18
10 18 95 0 84 -2 95 -17 95 -10 0 -26 -5 -35 -10z"/>
<path d="M1095 1446 c-67 -29 -106 -107 -85 -169 13 -43 36 -64 129 -121 110
-68 131 -89 131 -135 0 -110 -142 -101 -216 15 -19 30 -39 54 -44 54 -6 0 -10
-40 -10 -95 0 -81 2 -95 16 -95 9 0 22 7 28 15 10 14 16 14 56 0 54 -19 158
-22 191 -5 67 35 96 92 84 167 -9 59 -53 108 -145 158 -40 22 -83 49 -96 62
-31 29 -32 76 -2 97 54 38 136 3 173 -72 31 -64 43 -54 47 38 2 44 2 85 0 90
-5 15 -23 12 -36 -6 -11 -15 -17 -15 -66 0 -64 19 -114 20 -155 2z"/>
<path d="M452 868 c3 -7 13 -37 23 -66 l17 -54 39 38 40 39 -57 27 c-66 32
-68 32 -62 16z"/>
</g>
</svg>
